<svg height="800" width="800" xmlns="http://www.w3.org/2000/svg" viewBox="0 0 512 512" xml:space="preserve"><path style="fill:#ff5050" d="M356.796 503.409H81.897c-10.122 0-18.327-8.205-18.327-18.327v-73.306c0-10.122 8.205-18.327 18.327-18.327h274.899c10.122 0 18.327 8.205 18.327 18.327v73.306c0 10.123-8.205 18.327-18.327 18.327z"/><circle style="fill:#ff5050" cx="219.347" cy="219.347" r="210.756"/><path style="fill:#c84146" d="M265.163 384.286c-116.398 0-210.756-94.359-210.756-210.756 0-46.507 15.097-89.472 40.611-124.329C42.635 87.544 8.591 149.456 8.591 219.347c0 116.397 94.358 210.756 210.756 210.756 69.89 0 131.802-34.044 170.144-86.427-34.857 25.515-77.82 40.61-124.328 40.61z"/><circle style="fill:#e4eaf8" cx="219.347" cy="219.347" r="64.143"/><circle style="fill:#afb9d2" cx="219.347" cy="219.347" r="27.49"/><circle style="fill:#5b5d6e" cx="475.919" cy="329.306" r="27.49"/><path style="fill:#464655" d="M489.664 343.051c-15.182 0-27.49-12.307-27.49-27.49 0-4.028.914-7.827 2.472-11.273-9.545 4.31-16.217 13.864-16.217 25.018 0 15.182 12.307 27.49 27.49 27.49 11.154 0 20.708-6.671 25.018-16.217-3.446 1.558-7.244 2.472-11.273 2.472z"/><path d="M219.347 255.427c19.895 0 36.081-16.186 36.081-36.081a8.591 8.591 0 0 0-17.182 0c0 10.421-8.478 18.899-18.899 18.899s-18.899-8.478-18.899-18.899 8.478-18.899 18.899-18.899a8.591 8.591 0 0 0 0-17.182c-19.895 0-36.081 16.186-36.081 36.081s16.186 36.081 36.081 36.081z"/><path d="M219.347 292.081c40.106 0 72.734-32.628 72.734-72.734s-32.628-72.734-72.734-72.734-72.734 32.628-72.734 72.734 32.628 72.734 72.734 72.734zm0-128.287c30.632 0 55.553 24.921 55.553 55.553S249.979 274.9 219.347 274.9s-55.553-24.921-55.553-55.553 24.921-55.553 55.553-55.553zM100.315 421.512h-.092c-4.744 0-8.545 3.846-8.545 8.591s3.892 8.591 8.636 8.591a8.591 8.591 0 0 0 .001-17.182zM100.315 458.166h-.092c-4.744 0-8.545 3.846-8.545 8.591 0 4.744 3.892 8.591 8.636 8.591a8.591 8.591 0 0 0 8.591-8.591 8.59 8.59 0 0 0-8.59-8.591zM338.47 421.512h-.092c-4.744 0-8.545 3.846-8.545 8.591s3.892 8.591 8.636 8.591a8.591 8.591 0 0 0 .001-17.182zM338.47 458.166h-.092c-4.744 0-8.545 3.846-8.545 8.591 0 4.744 3.892 8.591 8.636 8.591a8.591 8.591 0 0 0 .001-17.182z"/><path d="M512 329.306c0-19.895-16.186-36.081-36.081-36.081s-36.081 16.186-36.081 36.081c0 16.41 11.017 30.287 26.039 34.648-3.529 19.755-13.429 37.849-28.393 51.597-14.927 13.713-33.763 22.031-53.771 23.889v-27.664c0-12.908-9.134-23.718-21.276-26.318 46.666-40.254 76.256-99.791 76.256-166.111C438.694 98.399 340.294 0 219.347 0S0 98.399 0 219.347c0 66.321 29.589 125.857 76.256 166.111-12.143 2.6-21.276 13.41-21.276 26.318v73.306C54.98 499.925 67.055 512 81.897 512h274.899c14.842 0 26.917-12.075 26.917-26.917V456.66c24.33-1.901 47.29-11.821 65.396-28.456 18.332-16.843 30.243-39.198 34.053-63.548 16.437-3.363 28.838-17.935 28.838-35.35zM17.181 219.347c0-111.474 90.692-202.166 202.166-202.166s202.166 90.692 202.166 202.166-90.692 202.166-202.166 202.166S17.181 330.821 17.181 219.347zm349.351 265.736c0 5.369-4.367 9.736-9.736 9.736H81.897c-5.369 0-9.736-4.367-9.736-9.736v-73.306c0-5.369 4.367-9.736 9.736-9.736h16.2c34.756 23.144 76.453 36.653 121.25 36.653s86.494-13.509 121.25-36.653h16.2c5.369 0 9.736 4.367 9.736 9.736v73.306zm109.387-136.877c-10.421 0-18.899-8.478-18.899-18.899s8.478-18.899 18.899-18.899 18.899 8.478 18.899 18.899-8.478 18.899-18.899 18.899z"/><path d="M297.739 73.538a166.062 166.062 0 0 1 17.423 10.833 8.557 8.557 0 0 0 4.972 1.591 8.591 8.591 0 0 0 4.986-15.591 183.43 183.43 0 0 0-19.232-11.957 8.591 8.591 0 0 0-11.637 3.488c-2.251 4.175-.689 9.385 3.488 11.636zM171.293 395.652a8.613 8.613 0 0 0 2.26.304 8.592 8.592 0 0 0 2.25-16.884c-50.009-13.599-91.279-50.536-110.397-98.803a8.591 8.591 0 0 0-15.974 6.328c21.101 53.275 66.657 94.042 121.861 109.055zM382.808 193.204c.67 4.23 4.322 7.246 8.474 7.246a8.589 8.589 0 0 0 8.494-9.938c-5.73-36.13-22.055-69.39-47.209-96.184a8.591 8.591 0 0 0-12.526 11.76c22.788 24.275 37.577 54.399 42.767 87.116z"/></svg>